<svg width="32" height="32" viewBox="0 0 32 32" fill="none" xmlns="http://www.w3.org/2000/svg">
<path d="M12.3334 29.3333L11.8001 25.0666C11.5112 24.9555 11.2392 24.8222 10.9841 24.6666C10.729 24.5111 10.4788 24.3444 10.2334 24.1666L6.26676 25.8333L2.6001 19.5L6.03343 16.9C6.01121 16.7444 6.0001 16.5946 6.0001 16.4506V15.5506C6.0001 15.4057 6.01121 15.2555 6.03343 15.1L2.6001 12.5L6.26676 6.16663L10.2334 7.83329C10.4779 7.65552 10.7334 7.48885 11.0001 7.33329C11.2668 7.17774 11.5334 7.0444 11.8001 6.93329L12.3334 2.66663H19.6668L20.2001 6.93329C20.489 7.0444 20.7614 7.17774 21.0174 7.33329C21.2734 7.48885 21.5232 7.65552 21.7668 7.83329L25.7334 6.16663L29.4001 12.5L25.9668 15.1C25.989 15.2555 26.0001 15.4057 26.0001 15.5506V16.4493C26.0001 16.5942 25.9779 16.7444 25.9334 16.9L29.3668 19.5L25.7001 25.8333L21.7668 24.1666C21.5223 24.3444 21.2668 24.5111 21.0001 24.6666C20.7334 24.8222 20.4668 24.9555 20.2001 25.0666L19.6668 29.3333H12.3334ZM16.0668 20.6666C17.3557 20.6666 18.4557 20.2111 19.3668 19.3C20.2779 18.3888 20.7334 17.2888 20.7334 16C20.7334 14.7111 20.2779 13.6111 19.3668 12.7C18.4557 11.7888 17.3557 11.3333 16.0668 11.3333C14.7557 11.3333 13.6499 11.7888 12.7494 12.7C11.849 13.6111 11.3992 14.7111 11.4001 16C11.401 17.2888 11.8512 18.3888 12.7508 19.3C13.6503 20.2111 14.7557 20.6666 16.0668 20.6666Z" fill="#3E3D3A"/>
</svg>
