<svg width="32" height="32" viewBox="0 0 32 32" fill="currentColor" xmlns="http://www.w3.org/2000/svg">
<path d="M5.33325 28V15.5L2.93325 17.3333L1.33325 15.2L15.9999 4L30.6666 15.2L29.0666 17.3L26.6666 15.5V28H5.33325ZM10.6666 20C10.2888 20 9.97236 19.872 9.71725 19.616C9.46214 19.36 9.33414 19.0436 9.33325 18.6667C9.33236 18.2898 9.46036 17.9733 9.71725 17.7173C9.97414 17.4613 10.2906 17.3333 10.6666 17.3333C11.0426 17.3333 11.3595 17.4613 11.6173 17.7173C11.875 17.9733 12.0026 18.2898 11.9999 18.6667C11.9973 19.0436 11.8693 19.3604 11.6159 19.6173C11.3626 19.8742 11.0461 20.0018 10.6666 20ZM15.9999 20C15.6221 20 15.3057 19.872 15.0506 19.616C14.7955 19.36 14.6675 19.0436 14.6666 18.6667C14.6657 18.2898 14.7937 17.9733 15.0506 17.7173C15.3075 17.4613 15.6239 17.3333 15.9999 17.3333C16.3759 17.3333 16.6928 17.4613 16.9506 17.7173C17.2084 17.9733 17.3359 18.2898 17.3333 18.6667C17.3306 19.0436 17.2026 19.3604 16.9493 19.6173C16.6959 19.8742 16.3795 20.0018 15.9999 20ZM21.3333 20C20.9555 20 20.639 19.872 20.3839 19.616C20.1288 19.36 20.0008 19.0436 19.9999 18.6667C19.999 18.2898 20.127 17.9733 20.3839 17.7173C20.6408 17.4613 20.9573 17.3333 21.3333 17.3333C21.7093 17.3333 22.0261 17.4613 22.2839 17.7173C22.5417 17.9733 22.6693 18.2898 22.6666 18.6667C22.6639 19.0436 22.5359 19.3604 22.2826 19.6173C22.0293 19.8742 21.7128 20.0018 21.3333 20Z" fill="currentColor"/>
</svg>
