<svg width="64" height="64" viewBox="0 0 64 64" fill="none" xmlns="http://www.w3.org/2000/svg">
<circle cx="32" cy="32" r="32" fill="#3E3D3A"/>
<path d="M32.0002 42.6667C29.0224 42.6667 26.5002 41.6334 24.4335 39.5667C22.3668 37.5 21.3335 34.9778 21.3335 32C21.3335 29.0223 22.3668 26.5 24.4335 24.4334C26.5002 22.3667 29.0224 21.3334 32.0002 21.3334C33.5335 21.3334 35.0002 21.6498 36.4002 22.2827C37.8002 22.9156 39.0002 23.8214 40.0002 25V21.3334H42.6668V30.6667H33.3335V28H38.9335C38.2224 26.7556 37.2504 25.7778 36.0175 25.0667C34.7846 24.3556 33.4455 24 32.0002 24C29.7779 24 27.8891 24.7778 26.3335 26.3334C24.7779 27.8889 24.0002 29.7778 24.0002 32C24.0002 34.2223 24.7779 36.1112 26.3335 37.6667C27.8891 39.2223 29.7779 40 32.0002 40C33.7113 40 35.2557 39.5112 36.6335 38.5334C38.0113 37.5556 38.9779 36.2667 39.5335 34.6667H42.3335C41.7113 37.0223 40.4446 38.9445 38.5335 40.4334C36.6224 41.9223 34.4446 42.6667 32.0002 42.6667Z" fill="#E2DCCB"/>
</svg>
