<svg width="22" height="22" viewBox="0 0 22 22" fill="none" xmlns="http://www.w3.org/2000/svg">
  <path
    d="M11.0002 21.6667C8.02239 21.6667 5.50016 20.6334 3.4335 18.5667C1.36683 16.5 0.333496 13.9778 0.333496 11C0.333496 8.02226 1.36683 5.50004 3.4335 3.43337C5.50016 1.36671 8.02239 0.333374 11.0002 0.333374C12.5335 0.333374 14.0002 0.649818 15.4002 1.28271C16.8002 1.9156 18.0002 2.82137 19.0002 4.00004V0.333374H21.6668V9.66671H12.3335V7.00004H17.9335C17.2224 5.7556 16.2504 4.77782 15.0175 4.06671C13.7846 3.3556 12.4455 3.00004 11.0002 3.00004C8.77794 3.00004 6.88905 3.77782 5.3335 5.33337C3.77794 6.88893 3.00016 8.77782 3.00016 11C3.00016 13.2223 3.77794 15.1112 5.3335 16.6667C6.88905 18.2223 8.77794 19 11.0002 19C12.7113 19 14.2557 18.5112 15.6335 17.5334C17.0113 16.5556 17.9779 15.2667 18.5335 13.6667H21.3335C20.7113 16.0223 19.4446 17.9445 17.5335 19.4334C15.6224 20.9223 13.4446 21.6667 11.0002 21.6667Z"
    fill="currentColor" />
</svg>